# xmcd
# 
# Track frame offsets:
#     150
#     11687
#     30979
#     48003
#     81191
#     108162
#     130176
#     184575
#     220404
#     234928
#     244431
#     271755
#     305295
# 
# Disc length: 4486
# 
# Revision: 1
# Processed by: cddbd v1.5.2PL0 Copyright (c) Steve Scherf et al.
# Submitted via: fre:ac v1.0.17
# 
DISCID=9d11840d
DTITLE=Erja Lyytinen - Songs From The Road
DYEAR=2012
DGENRE=Blues
TTITLE0=The Road Leading Home
TTITLE1=Voracious Love
TTITLE2=Don't Let A Good Woman Down
TTITLE3=Everything's Fine
TTITLE4=Grip Of The Blues
TTITLE5=Can't Fall In Love
TTITLE6=Not A Good Girl
TTITLE7=Steamy Windows
TTITLE8=No Place Like Home
TTITLE9=Crossroads
TTITLE10=Skinny Girl
TTITLE11=Oil And Water
TTITLE12=Soul Of A Man
EXTD=
EXTT0=
EXTT1=
EXTT2=
EXTT3=
EXTT4=
EXTT5=
EXTT6=
EXTT7=
EXTT8=
EXTT9=
EXTT10=
EXTT11=
EXTT12=
PLAYORDER=
